<svg aria-hidden="true" style="position: absolute; width: 0; height: 0; overflow: hidden;" version="1.1" xmlns="http://www.w3.org/2000/svg" xmlns:xlink="http://www.w3.org/1999/xlink">
  <defs>


<symbol id="email" width="21" height="16" viewBox="0 0 21 16" fill="none"><path d="M18.5 0H2.5C1.4 0 0.51 0.9 0.51 2L0.5 14C0.5 15.1 1.4 16 2.5 16H18.5C19.6 16 20.5 15.1 20.5 14V2C20.5 0.9 19.6 0 18.5 0ZM18.5 4L10.5 9L2.5 4V2L10.5 7L18.5 2V4Z" fill="#E0E0E0"/></symbol>

<symbol id="name" viewBox="0 0 490 490" style="enable-background:new 0 0 490 490;" fill="#E0E0E0"><path d="M135.769,207.788c0,35.83,12.712,72.124,34.877,99.574c23.268,28.815,53.618,44.685,85.459,44.685c31.835,0,62.147-15.86,85.353-44.659c22.091-27.416,34.761-63.695,34.761-99.535v-32.07
		c23.499-74.602,14.779-137.595,7.134-154.97c-0.012-0.027-0.027-0.052-0.04-0.079c-0.072-0.159-0.152-0.313-0.234-0.467
		c-0.045-0.084-0.088-0.171-0.136-0.253c-0.08-0.137-0.167-0.268-0.254-0.399c-0.062-0.093-0.121-0.188-0.186-0.277
		c-0.078-0.107-0.162-0.209-0.246-0.312c-0.083-0.104-0.165-0.209-0.252-0.307c-0.075-0.084-0.155-0.162-0.233-0.243
		c-0.103-0.106-0.204-0.214-0.313-0.313c-0.079-0.073-0.163-0.14-0.245-0.21c-0.113-0.096-0.224-0.193-0.342-0.282
		c-0.097-0.074-0.199-0.14-0.299-0.209c-0.108-0.074-0.214-0.152-0.325-0.22c-0.127-0.079-0.259-0.149-0.39-0.22
		c-0.09-0.049-0.177-0.102-0.269-0.147c-0.156-0.078-0.318-0.146-0.48-0.214c-0.072-0.03-0.142-0.064-0.214-0.092
		c-0.173-0.067-0.35-0.122-0.528-0.177c-0.067-0.021-0.134-0.045-0.201-0.064c-0.169-0.047-0.342-0.083-0.515-0.119
		c-0.083-0.017-0.165-0.038-0.249-0.053c-0.148-0.026-0.299-0.042-0.449-0.059c-0.115-0.013-0.23-0.03-0.346-0.038
		c-0.119-0.008-0.24-0.009-0.36-0.012c-0.151-0.004-0.302-0.009-0.453-0.004c-0.095,0.003-0.19,0.012-0.285,0.018
		c-0.177,0.011-0.353,0.025-0.53,0.049c-0.027,0.003-0.054,0.003-0.081,0.007c-20.062,2.865-44.351-2.012-70.066-7.175
		c-43.121-8.658-87.673-17.581-122.508,7.26c-0.524-0.108-1.066-0.165-1.622-0.165c-35.729,0-60.682,29.608-60.682,72.002
		c0,32.772,13.789,93.919,15.748,102.441V207.788z M328.999,297.349c-20.108,24.955-45.996,38.698-72.894,38.698
		c-26.911,0-52.84-13.757-73.01-38.736c-19.908-24.655-31.326-57.284-31.326-89.522v-9.111c0-28.498,16.161-66.981,21.655-79.238
		c55.276-6.495,99.31-0.006,126.772,6.703c24.089,5.885,39.896,12.933,45.595,15.701l14.428,34.33v31.68
		C360.219,240.106,348.84,272.726,328.999,297.349z M180.703,32.034c0.772,0,1.517-0.115,2.224-0.32
		c2.342,0.671,4.958,0.277,7.047-1.31c29.374-22.312,71.23-13.905,111.709-5.778c21.237,4.265,41.546,8.343,60.305,8.343
		c2.89,0,5.74-0.109,8.555-0.317c4.922,17.755,9.586,62.524-3.828,117.681l-7.311-17.395c-0.697-1.658-1.932-3.033-3.507-3.903
		c-2.952-1.63-73.616-39.764-188.896-24.933c-0.02,0.002-0.038,0.008-0.057,0.01c-0.151,0.021-0.301,0.052-0.45,0.081
		c-0.115,0.022-0.231,0.04-0.344,0.067c-0.096,0.023-0.19,0.055-0.286,0.082c-1.021,0.285-1.949,0.761-2.752,1.388
		c-0.502,0.39-0.963,0.84-1.367,1.353c-0.018,0.023-0.039,0.044-0.057,0.068c-0.081,0.105-0.154,0.219-0.23,0.329
		c-0.075,0.109-0.155,0.215-0.225,0.327c-0.049,0.079-0.092,0.164-0.139,0.246c-0.088,0.152-0.175,0.304-0.253,0.462
		c-0.007,0.014-0.016,0.027-0.023,0.042c-0.619,1.282-9.674,20.183-16.721,43.296c-3.985-21.14-8.077-46.957-8.077-63.816
		C136.021,49.351,158.463,32.034,180.703,32.034z"/>
	<path d="M480.736,414.085c-10.786-15.798-25.828-26.766-43.5-31.717c-0.14-0.039-0.28-0.074-0.422-0.105l-80.257-17.846
		c-7.376-1.64-12.528-8.063-12.528-15.62v-4.75c0-4.418-3.582-8-8-8s-8,3.582-8,8v4.75c0,15.112,10.303,27.958,25.055,31.238
		l0.808,0.18c-22.386,27.264-58.898,43.835-97.866,43.835c-38.964,0-75.479-16.572-97.865-43.835l0.807-0.179
		c14.752-3.28,25.055-16.125,25.055-31.238v-4.75c0-4.418-3.582-8-8-8s-8,3.582-8,8v4.75c0,7.556-5.152,13.979-12.528,15.62
		l-80.257,17.846c-0.142,0.031-0.282,0.066-0.422,0.105c-17.672,4.951-32.714,15.918-43.5,31.717
		c-9.866,14.451-15.299,31.891-15.299,49.109v19.843c0,15.999,14.355,29.016,32.001,29.016h416.016
		c17.646,0,32.001-13.017,32.001-29.016v-19.843C496.035,445.976,490.602,428.536,480.736,414.085z M480.035,483.037
		c0,7.177-7.178,13.016-16.001,13.016H48.018c-8.823,0-16.001-5.839-16.001-13.016v-19.843c0-25.893,16.114-56.618,46.913-65.362
		l62.013-13.789c24.802,34.649,68.465,56.006,115.083,56.006c46.622,0,90.28-21.357,115.083-56.007l62.013,13.789
		c30.799,8.744,46.913,39.469,46.913,65.362V483.037z"/></symbol>

   <symbol  id="linkedin" width="13" height="14" viewBox="0 0 13 14" fill="none" xmlns="http://www.w3.org/2000/svg">
<path d="M2.88053 13.2364H0.212521V4.59092H2.88053V13.2364ZM1.54509 3.41159C0.692131 3.41159 0 2.70053 0 1.84205C0 0.983569 0.692131 0.286957 1.54509 0.286957C2.39805 0.286957 3.09018 0.983569 3.09018 1.84205C3.09018 2.70053 2.39805 3.41159 1.54509 3.41159ZM12.8662 13.2364H10.2039V9.02785C10.2039 8.02484 10.1838 6.73857 8.81677 6.73857C7.42964 6.73857 7.21711 7.82829 7.21711 8.95558V13.2364H4.55198V4.59092H7.11085V5.77025H7.14819C7.5043 5.09098 8.37449 4.37413 9.6726 4.37413C12.3722 4.37413 12.869 6.16336 12.869 8.48732V13.2364H12.8662Z" fill="#696969"/>
</symbol>

   <symbol  id="twitter" width="17" height="14" viewBox="0 0 17 14" fill="none" xmlns="http://www.w3.org/2000/svg">
<path d="M15.0399 3.49415C15.0501 3.6349 15.0501 3.77568 15.0501 3.91643C15.0501 8.20944 11.7328 13.156 5.66983 13.156C3.80192 13.156 2.06673 12.6231 0.607117 11.6982C0.87251 11.7283 1.12766 11.7384 1.40327 11.7384C2.94451 11.7384 4.36331 11.2257 5.4963 10.351C4.0469 10.3208 2.83225 9.38577 2.41375 8.09886C2.61791 8.129 2.82204 8.14912 3.03641 8.14912C3.3324 8.14912 3.62843 8.10889 3.904 8.03855C2.39336 7.7369 1.26034 6.4299 1.26034 4.85144V4.81124C1.69923 5.05253 2.20963 5.20334 2.75056 5.22342C1.86254 4.64028 1.28076 3.64496 1.28076 2.51891C1.28076 1.91568 1.44405 1.36272 1.72986 0.880124C3.35279 2.85069 5.7923 4.13758 8.52776 4.27835C8.47674 4.03706 8.44611 3.78574 8.44611 3.53438C8.44611 1.74476 9.91593 0.286957 11.743 0.286957C12.6922 0.286957 13.5496 0.679059 14.1519 1.31246C14.897 1.17171 15.6114 0.90024 16.2443 0.528253C15.9993 1.28232 15.4788 1.91571 14.7949 2.31784C15.4584 2.2475 16.1014 2.06649 16.6934 1.81517C16.2444 2.45859 15.683 3.03164 15.0399 3.49415Z" fill="#696969"/>
</symbol>

<symbol   id="facebook" width="9" height="17" viewBox="0 0 9 17" fill="none" xmlns="http://www.w3.org/2000/svg">
<path d="M2.86171 16.0863V8.89145H0.431458V6.03236H2.86171V3.77965C2.86171 1.33215 4.36992 0 6.57203 0C7.62715 0 8.53334 0.0785464 8.79633 0.113107V2.67058H7.26911C6.07141 2.67058 5.84011 3.23611 5.84011 4.06242V6.03236H8.54285L8.17213 8.89145H5.84011V16.0863" fill="#696969"/>
</symbol>

<symbol id="pinterest" width="13" height="16" viewBox="0 0 13 16" fill="none" xmlns="http://www.w3.org/2000/svg">
<path d="M7.02927 0.286957C3.76274 0.286957 0.534424 2.31513 0.534424 5.59758C0.534424 7.68506 1.79519 8.87112 2.55929 8.87112C2.87448 8.87112 3.05595 8.05274 3.05595 7.82145C3.05595 7.54569 2.3014 6.95859 2.3014 5.81107C2.3014 3.42707 4.24986 1.73692 6.77138 1.73692C8.93951 1.73692 10.5441 2.88445 10.5441 4.99268C10.5441 6.56719 9.86598 9.52049 7.6692 9.52049C6.87645 9.52049 6.19831 8.98676 6.19831 8.22175C6.19831 7.10092 7.03882 6.01566 7.03882 4.85925C7.03882 2.89631 4.04928 3.25213 4.04928 5.62426C4.04928 6.12241 4.11614 6.67393 4.35492 7.1276C3.91556 8.88891 3.01775 11.5131 3.01775 13.3278C3.01775 13.8882 3.10371 14.4397 3.16101 15.0001C3.26926 15.1128 3.21514 15.1009 3.38069 15.0446C4.9853 12.9986 4.92799 12.5983 5.65389 9.92079C6.04549 10.6146 7.05792 10.9883 7.86022 10.9883C11.2414 10.9883 12.76 7.9193 12.76 5.1528C12.76 2.20839 10.0284 0.286957 7.02927 0.286957Z" fill="#696969"/>
</symbol>

  </defs>
</svg>